<?xml version="1.0" encoding="utf-8"?>
<!-- Generator: Adobe Illustrator 22.1.0, SVG Export Plug-In . SVG Version: 6.00 Build 0)  -->
<svg version="1.1" id="Calque_1" xmlns="http://www.w3.org/2000/svg" xmlns:xlink="http://www.w3.org/1999/xlink" x="0px" y="0px"
	 viewBox="0 0 1838.2 456.5" style="enable-background:new 0 0 1838.2 456.5;" xml:space="preserve">
<style type="text/css">
	.st0{fill:#D56729;}
	.st1{fill:#F89C35;}
	.st2{fill:#F8D85C;}
	.st3{fill:#F2BC4B;}
	.st4{fill:#9ACA41;}
	.st5{fill:#72A343;}
	.st6{fill:#D32127;}
	.st7{fill:#851919;}
	.st8{fill:#C63529;}
	.st9{fill:#79221B;}
	.st10{fill:#3E1E17;}
	.st11{fill:#F3B423;}
	.st12{fill:#EE8C25;}
	.st13{fill:#F0A14A;}
	.st14{fill:#D56929;}
	.st15{fill:#D56829;}
</style>
<title>Logo</title>
<g id="Pain">
	<polygon class="st0" points="251.9,15.7 182.2,33.1 126.8,65 89.1,109.2 75.6,159.4 95.4,178.5 169.8,206.2 260.3,223.3 
		346.3,225.1 431.6,220.6 495,201.4 500.8,170.2 317.3,50.4 	"/>
	<path class="st1" d="M257.9,14.7c0,0-114.9,75.4-48.8,138.2s289.2,46.7,289.2,46.7l51-21.9l-3.4-48.8l-54.5-69l-66.8-38.4
		L308.2,10.2L257.9,14.7z"/>
	<circle class="st2" cx="289.2" cy="81.8" r="8.7"/>
	<circle class="st2" cx="350.6" cy="76.2" r="12.2"/>
	<circle class="st2" cx="224.4" cy="73.1" r="13.2"/>
	<circle class="st2" cx="299.3" cy="175.3" r="12.5"/>
	
		<ellipse transform="matrix(0.1602 -0.9871 0.9871 0.1602 84.9292 350.6424)" class="st2" cx="248.5" cy="125.4" rx="9.3" ry="9.3"/>
	<circle class="st2" cx="391.5" cy="118" r="11"/>
	<circle class="st2" cx="424.5" cy="83.4" r="7.1"/>
	<circle class="st2" cx="389.4" cy="165.1" r="8.9"/>
	<circle class="st2" cx="456.2" cy="160.7" r="12.4"/>
	<circle class="st2" cx="470.4" cy="119.6" r="8.1"/>
	<circle class="st3" cx="155.5" cy="116.2" r="9.2"/>
	<circle class="st3" cx="201.8" cy="163" r="10.1"/>
</g>
<g id="Salade">
	<polyline class="st4" points="78.1,217 108.6,221.7 134.7,229.3 152.4,245.1 175.8,238.9 188.6,232.6 212,247.6 224.4,257 
		248.5,259.5 278.4,244.3 293.1,251.4 313.7,264 335.2,268.4 365.7,253.8 380.5,251.6 400.6,259.4 417.3,262.8 450,247.6 
		492.1,227.3 532.3,231 546.9,228.1 556.3,212.3 553.8,178.9 519.4,192.2 460.3,216.8 376.8,220.2 260.3,223.3 164.6,208.1 
		72.7,165.1 	"/>
	<path class="st5" d="M253.4,256.4c0,0-17.8-14.2-22.2-38.6l-66.6-12l-59.7-21.4l-26.2-19.3l-11.8,33.7l12.4,18l11.2,1l32.2,7.3
		l17.6,11.9l15.2,10.7l25.1-12.5l11.1-2.2l14.7,11.1l11,12.4l21.9,3.4L253.4,256.4z"/>
</g>
<g id="Tomate">
	<polygon class="st6" points="78.1,217 105.8,221.2 140.3,237 155.5,245.7 180.6,235.1 193.4,234.2 212,247.6 232.2,259.8 
		257.8,254.3 271.8,247.6 290.7,250.3 313.7,264 336.3,268.6 355.4,258.7 378.6,249.3 402.6,259.8 417.3,259.8 462.4,239 
		490.9,227.8 528,230.1 542.3,233.2 500.8,262.8 453.6,275.8 382.2,285.4 293.8,285.4 212,276 147.9,259.8 83.1,226.2 	"/>
	<path class="st7" d="M190.4,232.6c0,0,18.3,40,29.8,43.4l-45.8-8.6L110.6,246l-36.9-27.5l23.7-1.8l38.6,13.8l12.5,12.1h24.5
		L190.4,232.6z"/>
</g>
<g id="Steack">
	<polygon class="st8" points="66.9,243 69.7,280.3 78.1,300.6 104.6,322.8 160.1,344.8 217.3,353.5 299.3,358.2 334.3,358.2 
		409.9,348.3 454.5,345.4 505.8,330.7 531.3,312.7 552.5,279 556.3,245.4 500.8,281.4 417.4,334.9 274.6,329.7 197.1,290.1 
		131.8,266.8 	"/>
	<polygon class="st9" points="239.2,311.6 293.4,356.5 222.7,352.5 146.3,343.5 93.4,314 69.7,280.3 66.9,243 163.6,278.3 	"/>
</g>
<g id="Salade-2">
	<polygon class="st4" points="75.6,294.6 60.9,316.5 65.6,331.4 90.2,360.9 127.4,383.7 170.3,368.9 192.4,382.6 209.5,390.3 
		244.2,379.3 270.9,394.8 280.5,403.9 304.1,394.2 330.4,379.3 358,390.9 382,398 407.8,374.4 424.9,360.9 459.9,379.9 478.9,377 
		499.5,359.6 525.2,362.5 539,364.7 549.4,349.2 555.6,322.9 542.3,302.2 519.9,321.5 474.8,341 436.8,345.4 389.9,351.8 
		357.4,378.8 325.7,355.4 302.9,357.3 231.3,352.9 169.5,346.8 115,332.2 	"/>
	<polygon class="st5" points="244.2,356.5 255.9,385.8 241.6,379.3 217,389.6 196.2,387.7 171,369.2 145.2,377.8 122.2,379.3 
		95.5,365.2 65.6,336.4 60.9,315.3 75.6,297.3 100.8,318.2 144.6,339.6 204.9,350.7 	"/>
</g>
<g id="contour2">
	<path class="st10" d="M307.3,364.8c-44.2,0.1-88.3-3.4-131.9-10.4c-50.5-8.3-85.2-26.5-103.3-54.2c-19-29.2-11.9-57.7-11.6-58.9
		l12.8,3.3l-6.4-1.7l6.4,1.6c-0.1,0.3-5.9,24.5,10,48.7c16,24.3,47.7,40.5,94.2,48.1c134.6,22.1,258.8,3.6,305.7-9.2
		c51.5-14.1,68.6-54.2,67.6-84.3l13.2-0.4c1.1,34.9-18.4,81.4-77.3,97.5C454.9,353.6,388.4,364.8,307.3,364.8z"/>
</g>
<g id="Fromage">
	<polygon class="st11" points="60.9,184 16.5,222.3 126.7,264.9 266.5,325.6 360.1,377.8 411.9,338.8 490.6,285.4 569.5,241.2 
		606.7,225.8 557.5,178.8 557.4,217 537.7,237.7 492.4,264.2 425.6,279.6 343.4,285.4 259.9,283 193.1,271.3 129.7,252.1 
		73.7,216.8 75.6,198.3 	"/>
	<path class="st12" d="M36.8,208.5c46.6,18.5,83.9,35.3,109.5,47.2c46.4,21.7,95,38.9,140.2,63c25.8,13.8,47.9,27,76.6,22.9
		c25.5-3.7,42.5-19.1,50-25.7c28.4-24.8,78.1-59.9,172.5-107.5l23.4,16.5l-63.5,26.2l-66.9,41.9L395.2,351L357,381.4l-67.8-44
		L188.6,287L86.4,251.2L15.3,225L36.8,208.5z"/>
</g>
<g id="Pain_bas">
	<polygon class="st13" points="83.2,356.5 92.1,384.8 111.1,410.3 192.4,438.3 282.5,449.8 366.5,448.6 434,440.2 491.6,426.4 
		525.2,404.1 539.3,364.2 503.9,360.1 486.3,372.4 462.6,381.5 424.4,363.9 410.3,370.5 391,392.5 384.7,399.4 364,400.5 
		336.7,380.8 314.5,382.1 292.7,401.4 278,403.1 246.1,377.8 210.6,393.6 196.2,387.7 171.2,366.4 146.7,376 130.7,384.3 
		101.8,367.5 	"/>
	<path class="st14" d="M209.8,391.8c0,0,42.6,72.3,310,12.3l-10.3,16.5l-40.9,14.9l-59.1,14.3l-90.5-2.3l-87-5.3l-84.5-15.4
		l-53.3-32.3l-11-42l24.7,25.3l24.4,4.8l22.7-8.5l13.2-5.9l25.2,16.4L209.8,391.8z"/>
</g>
<g id="contour">
	<path class="st10" d="M567.3,222.3h-19.8c0-13.9-1.5-85.6-31.3-128.2c-30-43-109.3-74.3-188.5-74.3c-84,0-122.3,15.3-189.6,50.1
		c-63.6,33-58.3,141.6-58.3,142.7l-19.8,1.1c-0.3-5-6.1-122.6,69-161.4C199.2,16,239.3,0,327.7,0C412.9,0,499,34.8,532.5,82.8
		C564.8,129,567.3,201.3,567.3,222.3z"/>
	<path class="st10" d="M313.5,235c-198.7,0-246.2-67.2-248.1-70.1l16.4-11.2c0.4,0.6,45.5,61.4,231.7,61.4
		c186,0,232.4-47.4,232.8-47.9l15,13C559.3,182.5,511.4,235,313.5,235z"/>
	<path class="st10" d="M331.8,275.2c-15.4,0-29.1-9.3-40.1-16.8c-4.6-3.1-10.9-7.4-13-7.4c-2.2,0.1-6.2,2.5-10,4.8
		c-8.1,4.8-19.2,11.4-33.6,10.6c-14.9-0.8-25.8-10.7-34.4-18.7c-4.1-3.8-8.4-7.7-11.2-8.5c-1.4-0.2-5.7,2.7-8.6,4.5
		c-9.9,6.2-26.5,16.7-43.7-0.6c-18.8-18.8-63-19.5-63.5-19.5l0.2-13.2c2,0,50.1,0.8,72.7,23.4c9.3,9.3,16.5,5.6,27.4-1.2
		c6.2-3.9,12.7-8,19.4-5.9c5.7,1.7,10.6,6.2,16.3,11.5c7.5,6.9,16,14.7,26.2,15.3c10.5,0.6,18.8-4.4,26.1-8.8
		c5.5-3.3,10.6-6.3,16.1-6.6c6.3-0.3,12.8,4.1,21.1,9.7c9.5,6.5,21.4,14.5,32.7,14.5c10.4,0,18.8-5.8,26.1-10.9s14.1-9.8,22-8.3
		c4.9,0.9,9,3.3,12.9,5.5c6.9,4,13.4,7.8,26.4,5c5.5-1.2,12.6-5.2,20.7-9.8c23-13,54.4-30.9,101-17.1l-3.8,12.7
		c-41.2-12.2-68.6,3.3-90.7,15.9c-9.1,5.2-16.9,9.6-24.5,11.2c-18,3.8-28.3-2.1-35.8-6.5c-3.2-1.9-6-3.5-8.7-4
		c-2.5-0.5-7.3,2.9-12,6.1C356.9,267.8,346.4,275.2,331.8,275.2z"/>
	<path class="st10" d="M337.9,293.4c-206.7,0-270.6-71.4-273.2-74.5l10-8.6c0.6,0.7,63.4,69.9,263.2,69.9
		c196.4,0,212.9-72.1,213-72.8l13,2.3C563.3,213.1,547.1,293.4,337.9,293.4z"/>
	<path class="st10" d="M358.5,387.6l-4.1-2.9C238.2,302,13.6,232.1,11.4,231.4L0,227.8l62.6-54.1l8.7,10l-44.7,38.6
		c46.8,15.3,227.9,76.8,331.4,148.7c23.9-18.8,147.1-114,237.4-148.3l-47.9-37.9l8.2-10.4l66.8,52.9l-11.7,3.9
		c-96.4,31.7-247.1,151.9-248.6,153.1L358.5,387.6z"/>
	<path class="st10" d="M282.8,410.7c-9.6,0-17.7-7.5-25.6-14.8c-4.6-4.3-10.4-9.7-13.6-10c-4.1-0.4-9.8,2.6-15.2,5.5
		c-6.4,3.4-13,6.9-20.2,7.2c-9.4,0.3-18.7-7.3-27.9-14.8c-4.2-3.5-10.6-8.7-12.9-9c-2-0.2-2.5,0-6.3,2.9
		c-5.9,4.8-12.5,8.6-19.6,11.5c-25.9,10.8-68.4-34.4-80.9-48.6c-4.6-5-6.9-11.8-6.2-18.5c1.6-15.9,17.8-28.7,19.7-30.1l8,10.5
		c-3.8,2.9-13.7,12.3-14.5,20.9c-0.3,3.1,0.8,6.2,3,8.5c22.6,25.7,53.4,50.3,65.9,45.1c6-2.4,11.6-5.6,16.6-9.6
		c4.3-3.3,8.4-6.5,15.9-5.6c6.1,0.7,12.4,5.9,19.7,11.9c5.8,4.8,14.6,11.9,18.9,11.8s9.5-3,14.6-5.7c7.2-3.8,14.6-7.7,22.6-7
		c7.7,0.7,14.3,6.9,21.4,13.5c5.4,5,12.2,11.3,16.6,11.3c4.7,0,15.2-7.1,22.8-12.2c12.6-8.5,20.7-13.7,27.9-12.5
		c5.5,0.9,11.8,5,19.1,9.8c7.5,4.9,17.8,11.6,23.3,11.1c3.3-0.3,10.9-8.9,16-14.6c10.4-11.7,21.2-23.8,33.6-21.7
		c8.3,1.4,16.5,5.9,24.4,10.2c7.1,3.9,15.2,8.3,19.4,7.5c3.3-0.6,8.7-5.8,13-9.9c7.7-7.4,16.4-15.8,26.4-13.3
		c8.6,2.2,21.2,4.9,26.7,6.1c3.6-2.8,11.3-9.8,13.2-20.3c1.9-10.3-1.9-21.8-11.5-34.2l10.5-8c12,15.5,16.7,30.6,14,44.8
		c-3.8,19.8-20.7,30.1-21.4,30.5l-2.3,1.3l-2.5-0.5c-0.8-0.2-18.4-3.9-30-6.8c-2.9-0.7-9.6,5.7-14,10c-6.2,5.9-12.5,12-19.7,13.4
		c-8.7,1.6-18.1-3.5-28.1-8.9c-7-3.8-14.2-7.7-20.3-8.8c-5.1-0.8-15,10.2-21.5,17.5c-8.7,9.8-16.2,18.3-24.8,19
		c-10,0.8-21.5-6.6-31.6-13.2c-5-3.3-11.3-7.4-14.1-7.8l0,0c-2.8,0-12.5,6.5-18.3,10.4C301.9,403.7,291.5,410.7,282.8,410.7z"/>
	<path class="st10" d="M320.8,456.5c-55.1,0-129.6-11.8-189.8-30c-59.1-17.9-54.3-68.4-54.2-68.9l13.1,1.4l-6.6-0.7l6.6,0.7
		c-0.2,1.6-3.4,40.2,44.9,54.8c59.1,17.9,132.1,29.5,186,29.5c54.5,0,94.9-4.3,131-14.1l2.9-0.8c34-9.1,76.4-20.5,81-68.3l13.1,1.3
		c-5.5,56.9-56.8,70.7-90.7,79.8l-2.9,0.8C418,452,376.5,456.5,320.8,456.5z"/>
	<polygon class="st10" points="59.9,213.8 65.1,219.4 78.7,214.7 77.3,206.3 60.3,209.1 	"/>
	<polygon class="st10" points="545.4,238.9 567.3,222.3 564.7,215.2 555,218.3 	"/>
</g>
<g id="texte">
	<path class="st15" d="M803,251.3c6.3,7.5,9.5,17.3,9.5,29.5c0,37.4-29.3,56.1-87.9,56.1c-17.2,0-34.8-0.5-52.8-1.5l2.1-57.6
		l-2.1-135.6l68.7-0.3c19.8,0,35.2,4.1,46.2,12.5c11,8.3,16.5,20.3,16.5,35.9c0,10.4-2.5,19.5-7.7,27.3
		c-5.1,7.8-12.3,13.7-21.8,17.7C786.9,238.5,796.7,243.8,803,251.3z M760.7,300.3c6.9-5,10.3-12.2,10.3-21.6
		c0-14.2-9.2-23-27.6-26.4l-33.3,0.6l-0.3,21.3l0.9,32.4c6.9,0.8,13.8,1.2,20.7,1.2C744,307.8,753.8,305.4,760.7,300.3L760.7,300.3z
		 M753.6,176.9c-5.2-3.7-14.3-5.5-27.3-5.5h-14.7l-0.9,52.5l28.2,0.9c7.6-2,13.3-5.3,17-9.9c3.7-4.6,5.6-11,5.5-19.2
		C761.4,186.9,758.8,180.6,753.6,176.9L753.6,176.9z"/>
	<path class="st15" d="M973.5,309.4l-3.6,21c-6.7,4.6-14.6,7.2-22.8,7.5c-5.4-0.8-10.4-3.2-14.4-6.9c-3.8-3.6-6.7-8.8-8.7-15.6h-2.7
		c-11.4,11.2-23.2,18.5-35.4,21.9c-15.2,0-26.7-3.5-34.7-10.3s-11.8-16.8-11.5-29.8l0.6-35.4l-1.5-63l38.7-3.3l-0.9,88.5
		c-0.2,7,1.2,12.3,4.2,15.9c3,3.6,7.5,5.4,13.5,5.4c8.8,0,17.5-3.9,26.1-11.7v-94.8l38.1-3.3l-2.7,103.8c0,3.2,0.5,5.5,1.7,6.9
		c1.1,1.4,2.8,2.1,5.3,2.1c2.7-0.1,5.5-0.5,8.1-1.2L973.5,309.4z"/>
	<path class="st15" d="M1079.7,196.3v36.9l-4.2,1.5c-3.5-1.4-7.3-2.1-11.1-2.1c-11.6,0-22.1,7.5-31.5,22.5V274l2.1,61.5h-39.9
		l2.4-57.6l-1.8-79.2l37.8-3.3l-0.3,27.3h2.4c9.8-18,22-27,36.6-27C1074.7,195.7,1077.3,195.9,1079.7,196.3z"/>
	<path class="st15" d="M1209.3,219.4l-0.6,1.2c3.1,6.3,4.6,13.1,4.5,20.1c0,15-5.4,27-16.3,35.8c-10.9,8.9-25.7,13.3-44.3,13.3
		c-5.8,0-11.7-0.5-17.4-1.5c-1.3,1.3-2.6,2.7-3.6,4.2c-0.6,1.1-0.9,2.3-0.9,3.6c0,3.6,2.4,6.1,7.2,7.5c4.8,1.4,12.4,2.8,22.8,4.2
		c9.9,1.1,19.8,2.8,29.6,5.1c7.5,1.8,14.5,5.4,20.4,10.5c5.7,5,8.6,12.1,8.6,21.3c0.1,9.2-3.1,18.2-8.8,25.3
		c-5.9,7.5-14.1,13.3-24.4,17.5c-10.4,4.2-22.2,6.3-35.4,6.3c-18.2,0-32.2-3.7-42-11.1c-9.8-7.4-14.7-17.2-14.7-29.4
		c6.2-8.6,14.5-16.1,24.9-22.5v-1.5c-6.8-2.4-12.1-5.8-15.9-10c-3.8-4.3-5.7-10.1-5.7-17.3c5.9-7,12.8-13.2,20.4-18.3v-1.5
		c-6.8-3.6-12.5-9.1-16.3-15.8c-3.7-6.5-5.6-14.2-5.6-23c0-15.6,5.4-27.8,16.2-36.6s25.5-13.2,44.1-13.2c10.1-0.1,20,1.7,29.4,5.4
		c15-2.8,29.8-6.8,44.1-12l3,2.7v24.9C1227,216.2,1219.3,217.8,1209.3,219.4z M1177.1,340.9c-5.7-2-14.5-3.7-26.3-5.1l-10.2-1.5
		c-4,2.5-7.7,5.7-10.8,9.3c-2.3,2.7-3.6,6.1-3.6,9.6c0,5.2,2.4,9.4,7.2,12.6c4.8,3.2,11.8,4.8,21,4.8c9.4,0,16.9-1.7,22.7-5
		s8.6-7.9,8.6-13.7C1185.6,346.5,1182.8,342.9,1177.1,340.9L1177.1,340.9z M1172.4,259.6c4.2-4.2,6.3-10.3,6.3-18.3
		c0-15.2-7.8-22.8-23.4-22.8c-16.8,0-25.2,7.7-25.2,23.1c0,8,2,14,6,18.2c4,4.1,9.9,6.2,17.7,6.2
		C1162,265.9,1168.2,263.8,1172.4,259.6L1172.4,259.6z"/>
	<path class="st1" d="M1431.3,335.5h-42.6l-28.8-92.4h-2.7l-29.1,92.4h-42.9l-54-193.2h39.9l3,23.7l34.2,127.5h2.7l32.7-104.1
		l-13.8-47.1h41.4l4.5,27.9l34.8,123.3h2.7l39-124.8l4.8-26.4h37.8L1431.3,335.5z"/>
	<path class="st1" d="M1550.9,133c3.5,3.6,5.3,8.6,5.3,15c0,6.8-1.9,12.2-5.7,16.2c-3.8,4-9,6-15.6,6c-6.6,0-11.6-1.8-15.2-5.4
		c-3.5-3.6-5.2-8.7-5.3-15.3c0-6.6,1.9-11.9,5.8-15.9c3.9-4,9.2-6,16-6C1542.5,127.6,1547.4,129.4,1550.9,133z M1517.4,277.9
		l-1.5-79.2l39.3-3.3l-1.8,78.6l1.8,61.5h-39.9L1517.4,277.9z"/>
	<path class="st1" d="M1678.2,200.5l-5.4,29.4l-4.8,1.5c-5.4-3.6-11.3-6.5-17.4-8.7c-4.9-1.8-10.1-2.8-15.3-3
		c-4.8,0-8.6,1.3-11.4,3.8c-2.7,2.3-4.2,5.6-4.2,9.2c0,4.1,2.1,8,5.6,10.2c3.7,2.6,9.6,5.5,17.6,8.7c6.8,2.6,13.4,5.7,19.8,9.3
		c5.3,3.1,9.9,7.4,13.3,12.5c3.7,5.3,5.6,11.9,5.6,19.7c0,7.9-2.1,15.6-6.2,22.3c-4.1,6.9-10.3,12.5-18.8,16.8
		c-8.4,4.3-18.7,6.5-30.9,6.5c-14.4,0-29.3-3-44.7-9l4.5-31.2l3.9-2.4c6.2,5.2,13.2,9.4,20.7,12.5c7.6,3.1,14.3,4.7,20.1,4.7
		c5.4,0,9.6-1.4,12.6-4c2.9-2.4,4.5-6,4.5-9.8c0-4.1-2.1-8-5.6-10.2c-3.7-2.6-9.6-5.5-17.6-8.7c-8.2-3.6-14.9-6.9-20.1-9.8
		c-5.4-3-9.9-7.3-13.3-12.5c-3.7-5.4-5.6-12.1-5.6-20.1c0-13,4.9-23.7,14.7-32c9.8-8.3,23.1-12.5,39.9-12.5
		C1652.9,193.4,1666,195.8,1678.2,200.5z"/>
	<path class="st1" d="M1795.2,248.5c0.2-7.2-1.3-12.7-4.5-16.5c-3.2-3.8-7.9-5.7-14.1-5.7c-9,0-18.6,4.3-28.8,12.9l-0.6,34.8
		l2.1,61.5h-39.9l2.1-57.9l-1.8-149.7l39.9-3l-1.5,90.9h1.8c10.4-9.7,22.8-17,36.3-21.6c15.2,0,26.8,3.5,34.7,10.3
		s11.8,16.9,11.6,29.9l-0.9,39.9l1.5,61.2h-39.9L1795.2,248.5z"/>
</g>
</svg>
